<?xml version="1.0" encoding="UTF-8"?>
<svg id="Layer_2" data-name="Layer 2" xmlns="http://www.w3.org/2000/svg" viewBox="0 0 290.76 296.78">
  <defs>
    <style>
      .cls-1 {
        fill: #fff;
        stroke: #231f20;
        stroke-miterlimit: 10;
        stroke-width: 2px;
      }

      .cls-2 {
        fill: #231f20;
        font-family: AmericanTypewriter-Bold, 'American Typewriter';
        font-size: 13px;
        font-weight: 700;
      }
    </style>
  </defs>
  <g id="Layer_1-2" data-name="Layer 1">
    <g>
      <circle class="cls-1" cx="144.76" cy="146" r="110.41"/>
      <circle class="cls-1" cx="144.76" cy="146" r="84.72"/>
      <text class="cls-2" transform="translate(73.19 205.42) rotate(-127.07)"><tspan x="0" y="0">•</tspan></text>
      <text class="cls-2" transform="translate(67.4 197.51) rotate(-122.67)"><tspan x="0" y="0"> </tspan></text>
      <text class="cls-2" transform="translate(65.02 193.76) rotate(-119.9)"><tspan x="0" y="0"> </tspan></text>
      <text class="cls-2" transform="translate(62.83 189.87) rotate(-117.14)"><tspan x="0" y="0"> </tspan></text>
      <text class="cls-2" transform="translate(60.82 185.91) rotate(-114.38)"><tspan x="0" y="0"> </tspan></text>
      <text class="cls-2" transform="translate(58.94 181.97) rotate(-109.7)"><tspan x="0" y="0">D</tspan></text>
      <text class="cls-2" transform="translate(55.37 171.8) rotate(-103.08)"><tspan x="0" y="0">E</tspan></text>
      <text class="cls-2" transform="translate(53.02 161.32) rotate(-96.71)"><tspan x="0" y="0">P</tspan></text>
      <text class="cls-2" transform="translate(51.91 152.12) rotate(-90.6)"><tspan x="0" y="0">A</tspan></text>
      <text class="cls-2" transform="translate(51.87 140.67) rotate(-83.71)"><tspan x="0" y="0">R</tspan></text>
      <text class="cls-2" transform="translate(53.13 129.92) rotate(-77.32)"><tspan x="0" y="0">T</tspan></text>
      <text class="cls-2" transform="translate(55.23 120.13) rotate(-69.58)"><tspan x="0" y="0">M</tspan></text>
      <text class="cls-2" transform="translate(60.66 106.17) rotate(-61.61)"><tspan x="0" y="0">E</tspan></text>
      <text class="cls-2" transform="translate(65.77 96.75) rotate(-54.5)"><tspan x="0" y="0">N</tspan></text>
      <text class="cls-2" transform="translate(73.09 86.71) rotate(-47.68)"><tspan x="0" y="0">T</tspan></text>
      <text class="cls-2" transform="translate(80.01 79.34) rotate(-43.24)"><tspan x="0" y="0"> </tspan></text>
      <text class="cls-2" transform="translate(83.26 76.32) rotate(-40.5)"><tspan x="0" y="0"> </tspan></text>
      <text class="cls-2" transform="translate(86.55 73.42) rotate(-36)"><tspan x="0" y="0">O</tspan></text>
      <text class="cls-2" transform="translate(94.74 67.54) rotate(-29.66)"><tspan x="0" y="0">F</tspan></text>
      <text class="cls-2" transform="translate(103.81 62.56) rotate(-25.1)"><tspan x="0" y="0"> </tspan></text>
      <text class="cls-2" transform="translate(107.83 60.71) rotate(-22.36)"><tspan x="0" y="0"> </tspan></text>
      <text class="cls-2" transform="translate(111.86 58.98) rotate(-17.89)"><tspan x="0" y="0">O</tspan></text>
      <text class="cls-2" transform="translate(121.46 55.92) rotate(-11.41)"><tspan x="0" y="0">R</tspan></text>
      <text class="cls-2" transform="translate(132.26 53.81) rotate(-4.74)"><tspan x="0" y="0">D</tspan></text>
      <text class="cls-2" transform="translate(142.97 52.98) rotate(1.84)"><tspan x="0" y="0">E</tspan></text>
      <text class="cls-2" transform="translate(153.72 53.38) rotate(8.53)"><tspan x="0" y="0">R</tspan></text>
      <text class="cls-2" transform="translate(164.58 55.1) rotate(15.04)"><tspan x="0" y="0">L</tspan></text>
      <text class="cls-2" transform="translate(173.74 57.56) rotate(21.14)"><tspan x="0" y="0">Y</tspan></text>
      <text class="cls-2" transform="translate(183.76 61.63) rotate(25.86)"><tspan x="0" y="0"> </tspan></text>
      <text class="cls-2" transform="translate(187.75 63.6) rotate(28.62)"><tspan x="0" y="0"> </tspan></text>
      <text class="cls-2" transform="translate(191.63 65.6) rotate(33.37)"><tspan x="0" y="0">R</tspan></text>
      <text class="cls-2" transform="translate(200.78 71.71) rotate(40.1)"><tspan x="0" y="0">E</tspan></text>
      <text class="cls-2" transform="translate(208.95 78.75) rotate(45.49)"><tspan x="0" y="0">I</tspan></text>
      <text class="cls-2" transform="translate(214.08 83.85) rotate(51.56)"><tspan x="0" y="0">N</tspan></text>
      <text class="cls-2" transform="translate(221.56 93.51) rotate(58.2)"><tspan x="0" y="0">C</tspan></text>
      <text class="cls-2" transform="translate(226.49 101.46) rotate(64.66)"><tspan x="0" y="0">A</tspan></text>
      <text class="cls-2" transform="translate(231.32 111.83) rotate(71.58)"><tspan x="0" y="0">R</tspan></text>
      <text class="cls-2" transform="translate(234.77 122.27) rotate(78.77)"><tspan x="0" y="0">N</tspan></text>
      <text class="cls-2" transform="translate(237.04 134.04) rotate(85.81)"><tspan x="0" y="0">A</tspan></text>
      <text class="cls-2" transform="translate(237.78 145.29) rotate(92.29)"><tspan x="0" y="0">T</tspan></text>
      <text class="cls-2" transform="translate(237.26 155.37) rotate(97.63)"><tspan x="0" y="0">I</tspan></text>
      <text class="cls-2" transform="translate(236.31 162.56) rotate(102.98)"><tspan x="0" y="0">O</tspan></text>
      <text class="cls-2" transform="translate(234.06 172.35) rotate(109.94)"><tspan x="0" y="0">N</tspan></text>
      <text class="cls-2" transform="translate(229.59 183.98) rotate(115.17)"><tspan x="0" y="0"> </tspan></text>
      <text class="cls-2" transform="translate(227.68 187.98) rotate(117.92)"><tspan x="0" y="0"> </tspan></text>
      <text class="cls-2" transform="translate(225.58 191.89) rotate(120.66)"><tspan x="0" y="0"> </tspan></text>
      <text class="cls-2" transform="translate(223.28 195.7) rotate(123.4)"><tspan x="0" y="0"> </tspan></text>
      <text class="cls-2" transform="translate(220.91 199.4) rotate(127.74)"><tspan x="0" y="0">•</tspan></text>
      <text class="cls-2" transform="translate(76.79 222.72) rotate(36.99)"><tspan x="0" y="0">M</tspan></text>
      <text class="cls-2" transform="translate(89.99 232.26) rotate(29.4)"><tspan x="0" y="0">O</tspan></text>
      <text class="cls-2" transform="translate(99.77 237.67) rotate(22.93)"><tspan x="0" y="0">R</tspan></text>
      <text class="cls-2" transform="translate(110.93 242.21) rotate(16.77)"><tspan x="0" y="0">S</tspan></text>
      <text class="cls-2" transform="translate(120.48 244.93) rotate(12.59)"><tspan x="0" y="0"> </tspan></text>
      <text class="cls-2" transform="translate(125.58 246.16) rotate(7.45)"><tspan x="0" y="0">N</tspan></text>
      <text class="cls-2" transform="translate(138.85 247.71) rotate(.75)"><tspan x="0" y="0">O</tspan></text>
      <text class="cls-2" transform="translate(150.04 247.79) rotate(-6.04)"><tspan x="0" y="0">N</tspan></text>
      <text class="cls-2" transform="translate(163.29 246.12) rotate(-11.15)"><tspan x="0" y="0"> </tspan></text>
      <text class="cls-2" transform="translate(168.35 245.16) rotate(-15.63)"><tspan x="0" y="0">F</tspan></text>
      <text class="cls-2" transform="translate(179.14 241.97) rotate(-20.99)"><tspan x="0" y="0">I</tspan></text>
      <text class="cls-2" transform="translate(186.88 239.03) rotate(-27.01)"><tspan x="0" y="0">N</tspan></text>
      <text class="cls-2" transform="translate(198.77 232.7) rotate(-33.04)"><tspan x="0" y="0">I</tspan></text>
      <text class="cls-2" transform="translate(205.54 228.23) rotate(-38.08)"><tspan x="0" y="0">S</tspan></text>
      <g id="_9bAhv1" data-name="9bAhv1">
        <path d="M116.99,97.1v96.24s-5.23-.08-5.23-.08v-101.35s18.25-.07,18.25-.07l.12-6.96,47.64,8.28v98.95s-47.7,8.29-47.7,8.29l-.02-103.29h-13.07ZM143.51,142.62c0-2.01-1.63-3.65-3.65-3.65s-3.65,1.63-3.65,3.65,1.63,3.65,3.65,3.65,3.65-1.63,3.65-3.65Z"/>
      </g>
    </g>
  </g>
</svg>